<svg width="150" height="150" viewBox="0 0 17 17" fill="white" stroke="white" opacity="0.8">
  <rect x="5.2" y="1" width="6.6" height="15" rx="1.3" fill="none" stroke-width="1.2"/>
  <path d="M4.2,3.0 Q4.2,3.0 4.2,4.0 L5.2,4.3
           M12.8,3.0 Q12.8,3.0 12.8,4.0 L11.8,4.3
           M4.2,7.2 Q4.2,7.2 4.2,8.2 L5.2,8.5
           M12.8,7.2 Q12.8,7.2 12.8,8.2 L11.8,8.5
           M4.2,11.4 Q4.2,11.4 4.2,12.4 L5.2,12.7
           M12.8,11.4 Q12.8,11.4 12.8,12.4 L11.8,12.7" stroke-width="1.0" fill="none" stroke-linecap="round"/>
  <circle cx="8.5" cy="4.3" r="1.5" stroke="none" fill-opacity="0.95"/>
  <circle cx="8.5" cy="8.5" r="1.5" stroke="none" fill-opacity="0.7"/>
  <circle cx="8.5" cy="12.7" r="1.5" stroke="none" fill-opacity="0.45"/>
</svg>
